<?xml version="1.0" encoding="utf-8"?>
<!-- Generator: Adobe Illustrator 26.0.3, SVG Export Plug-In . SVG Version: 6.00 Build 0)  -->
<!DOCTYPE svg PUBLIC "-//W3C//DTD SVG 1.1//EN" "http://www.w3.org/Graphics/SVG/1.1/DTD/svg11.dtd" [
	<!ENTITY ns_extend "http://ns.adobe.com/Extensibility/1.0/">
	<!ENTITY ns_ai "http://ns.adobe.com/AdobeIllustrator/10.0/">
	<!ENTITY ns_graphs "http://ns.adobe.com/Graphs/1.0/">
	<!ENTITY ns_vars "http://ns.adobe.com/Variables/1.0/">
	<!ENTITY ns_imrep "http://ns.adobe.com/ImageReplacement/1.0/">
	<!ENTITY ns_sfw "http://ns.adobe.com/SaveForWeb/1.0/">
	<!ENTITY ns_custom "http://ns.adobe.com/GenericCustomNamespace/1.0/">
	<!ENTITY ns_adobe_xpath "http://ns.adobe.com/XPath/1.0/">
]>
<svg version="1.1"
	 id="svg2" xmlns:x="&ns_extend;" xmlns:i="&ns_ai;" xmlns:graph="&ns_graphs;" inkscape:version="0.91 r13725" sodipodi:docname="hexa.svg" xmlns:cc="http://creativecommons.org/ns#" xmlns:dc="http://purl.org/dc/elements/1.1/" xmlns:inkscape="http://www.inkscape.org/namespaces/inkscape" xmlns:rdf="http://www.w3.org/1999/02/22-rdf-syntax-ns#" xmlns:sodipodi="http://sodipodi.sourceforge.net/DTD/sodipodi-0.dtd" xmlns:svg="http://www.w3.org/2000/svg"
	 xmlns="http://www.w3.org/2000/svg" xmlns:xlink="http://www.w3.org/1999/xlink" x="0px" y="0px" viewBox="0 0 270.7 160.6"
	 style="enable-background:new 0 0 270.7 160.6;" xml:space="preserve">
<style type="text/css">
	.st0{fill:#7CC3CE;}
	.st1{fill:none;}
	.st2{fill:#FFFFFF;}
</style>
<metadata>
	<sfw  xmlns="&ns_sfw;">
		<slices></slices>
		<sliceSourceBounds  bottomLeftOrigin="true" height="160.6" width="270.7" x="0" y="110.1"></sliceSourceBounds>
	</sfw>
</metadata>
<rect y="0" class="st0" width="270.7" height="160.6"/>
<defs>
	
		<inkscape:perspective  id="perspective4136" inkscape:persp3d-origin="372.04724 : 350.7874 : 1" inkscape:vp_x="0 : 526.1811 : 1" inkscape:vp_y="0 : 1000 : 0" inkscape:vp_z="744.09449 : 526.1811 : 1" sodipodi:type="inkscape:persp3d">
		</inkscape:perspective>
</defs>
<sodipodi:namedview  bordercolor="#666666" borderopacity="1.0" id="base" inkscape:current-layer="layer1" inkscape:cx="297.48358" inkscape:cy="560.69314" inkscape:document-units="px" inkscape:pageopacity="0.0" inkscape:pageshadow="2" inkscape:window-height="1056" inkscape:window-maximized="1" inkscape:window-width="1920" inkscape:window-x="0" inkscape:window-y="24" inkscape:zoom="0.7" pagecolor="#ffffff" showgrid="false" showguides="false">
	</sodipodi:namedview>
<g id="layer1" inkscape:groupmode="layer" inkscape:label="Layer 1">
	<g id="g4184" transform="translate(-130.71429,-42.857143)">
		<circle id="path4298" class="st1" cx="266.1" cy="123.5" r="80"/>
		<path id="path4154" inkscape:connector-curvature="0" class="st2" d="M266.1,59.3l-40.6,23.5v46.9l40.6,23.5l40.6-23.5V82.8
			L266.1,59.3L266.1,59.3z M295.1,93.6c1.7,0,3,1.2,3,2.7v0.1v0.2c0,1.5-1.3,2.7-3,2.7c-1.7,0-3-1.2-3-2.7c0-0.1,0-0.1,0-0.1v-0.2
			C292.2,94.9,293.5,93.6,295.1,93.6z M236.6,93.9c1.4,0,2.5,0.9,2.5,2.2v0.1v16h8.9c1.4,0,2.5,1,2.5,2.2c0,1.2-1.1,2.2-2.5,2.2
			h-11.3c-1.4,0-2.5-1-2.5-2.2l0,0V96.2C234.2,94.9,235.3,93.9,236.6,93.9z M295.1,99.8c1.4,0,2.5,0.9,2.5,2.2v0.1v12.3
			c0,1.2-1.1,2.2-2.4,2.3c-1.4,0-2.5-0.9-2.5-2.2v-0.1v-12.3C292.7,100.8,293.8,99.8,295.1,99.8z M263.1,99.9c1.4,0,2.5,0.9,2.5,2.2
			v0.1v7.9c0.1,0.4,0.1,1.7-0.6,3.1c-0.8,1.7-3.2,3.5-6.6,3.5c-3.2,0-5.6-1.8-6.4-3.4c-0.7-1.4-0.7-2.8-0.6-3.1v-7.8
			c-0.1-1.2,1.1-2.2,2.4-2.3c1.4-0.1,2.5,0.9,2.5,2.2c0,0.1,0,0.1,0,0.1v7.9v0.1c0,0,0,0.5,0.2,1c0.2,0.4,0.2,0.8,1.9,0.8
			c1.8,0,1.8-0.4,2.1-0.8c0.2-0.5,0.2-1,0.2-1v-0.1v-8C260.6,100.9,261.6,99.9,263.1,99.9L263.1,99.9z M274.2,99.9
			c1.9,0,3.5,0.6,4.7,1.4c1.2-0.8,2.8-1.4,4.7-1.4c3.2,0,5.6,1.8,6.4,3.4c0.7,1.4,0.7,2.8,0.6,3.1v7.8c0,1.2-1.1,2.2-2.4,2.3
			c-1.4,0.1-2.5-0.9-2.5-2.2v-0.1v-8v-0.1c0,0,0-0.5-0.2-1c-0.2-0.4-0.2-0.8-1.9-0.8c-1.8,0-1.8,0.4-2.1,0.8c-0.2,0.5-0.2,1-0.2,1
			v0.1v8c0,1.2-1.1,2.2-2.5,2.2c-1.2,0-2.3-0.8-2.5-1.9c-0.1-0.2-0.1-0.3-0.1-0.5v-8v-0.1c0,0,0-0.5-0.2-1c-0.2-0.5-0.2-0.8-1.9-0.8
			c-1.8,0-1.8,0.4-2.1,0.8c-0.2,0.5-0.2,1-0.2,1v0.1v8c0,1.2-1.1,2.2-2.4,2.3c-1.4,0-2.5-0.9-2.5-2.2v-0.1v-7.9
			c-0.1-0.4-0.1-1.7,0.6-3.1C268.5,101.7,270.9,99.9,274.2,99.9z"/>
		<path id="path4156" inkscape:connector-curvature="0" class="st2" d="M242.9,149l-0.4,0.2v27.2l23.6,13.6l23.6-13.6v-27.2
			l-0.4-0.2l-23.2,13.4L242.9,149L242.9,149z"/>
	</g>
</g>
</svg>
