<?xml version="1.0" encoding="utf-8"?>
<!-- Generator: Adobe Illustrator 26.0.3, SVG Export Plug-In . SVG Version: 6.00 Build 0)  -->
<!DOCTYPE svg PUBLIC "-//W3C//DTD SVG 1.1//EN" "http://www.w3.org/Graphics/SVG/1.1/DTD/svg11.dtd" [
	<!ENTITY ns_extend "http://ns.adobe.com/Extensibility/1.0/">
	<!ENTITY ns_ai "http://ns.adobe.com/AdobeIllustrator/10.0/">
	<!ENTITY ns_graphs "http://ns.adobe.com/Graphs/1.0/">
	<!ENTITY ns_vars "http://ns.adobe.com/Variables/1.0/">
	<!ENTITY ns_imrep "http://ns.adobe.com/ImageReplacement/1.0/">
	<!ENTITY ns_sfw "http://ns.adobe.com/SaveForWeb/1.0/">
	<!ENTITY ns_custom "http://ns.adobe.com/GenericCustomNamespace/1.0/">
	<!ENTITY ns_adobe_xpath "http://ns.adobe.com/XPath/1.0/">
]>
<svg version="1.1" id="Layer_1" xmlns:x="&ns_extend;" xmlns:i="&ns_ai;" xmlns:graph="&ns_graphs;"
	 xmlns="http://www.w3.org/2000/svg" xmlns:xlink="http://www.w3.org/1999/xlink" x="0px" y="0px" viewBox="0 0 213.6 92"
	 style="enable-background:new 0 0 213.6 92;" xml:space="preserve">
<style type="text/css">
	.st0{fill:#7CC3CE;}
	.st1{fill:#FFFFFF;}
</style>
<metadata>
	<sfw  xmlns="&ns_sfw;">
		<slices></slices>
		<sliceSourceBounds  bottomLeftOrigin="true" height="92" width="213.6" x="0" y="0"></sliceSourceBounds>
	</sfw>
</metadata>
<rect x="0.3" y="0" class="st0" width="213" height="92"/>
<g id="_Group_">
	<g id="_Group_2">
		<path id="_Compound_Path_" class="st1" d="M205.7,7.1C200.5,2.1,192.6,0,182,0h-35v18h-43l-3.5,14.8c3.2-1.3,6.5-2.4,9.8-3.1
			c2.8-0.7,5.7-0.4,8.4-0.4c9.4,0,17.1,2.9,22.9,8.6s8.8,12.9,8.8,21.6c0,6.1-1.6,12.2-4.5,17.5c-2.9,5.4-7.4,9.8-12.9,12.6
			c-2,1.1-4.2,1.4-6.6,2.4H161V58h17.8c11.7,0,20.5-2.5,26.2-7.9s8.6-12.5,8.6-22C213.6,18.9,211,12.1,205.7,7.1z M181.9,35.7
			c-2.3,2-6.2,2.3-11.9,2.3h-9V18h10.2c5.4,0,9.1,1.1,11.1,3.2c2,1.9,3,4.5,3,7.3C185.4,31.3,184.1,34,181.9,35.7z"/>
		<path id="_Path_" class="st1" d="M109.5,46.3c-4.9,0-9.4,2.8-11.6,7.2l-25.5-3.1L83.9,0H61v38H29V0H0v92h29V58h32v34h34.8
			c-4-0.9-7.8-2.5-11.1-4.9c-3-2.1-5.5-4.8-7.6-7.8c-2.1-3.3-3.7-6.8-4.7-10.6L97.9,65c3.2,6.4,11,9,17.4,5.8c6.4-3.2,9-11,5.8-17.4
			C118.9,49.1,114.4,46.3,109.5,46.3L109.5,46.3z"/>
	</g>
</g>
</svg>
